<svg width="164" height="10" xmlns="http://www.w3.org/2000/svg"><defs><linearGradient x1=".258%" y1="49.75%" x2="101.258%" y2="49.75%" id="a"><stop stop-color="#3023AE" offset="0%"/><stop stop-color="#53A0FD" offset="47.525%"/><stop stop-color="#111F5E" offset="100%"/></linearGradient></defs><path d="M82 .034V.019c3.51.221 5.395 2.386 7.1 4.281 1.7 2 3.2 3.7 6.2 3.7s4.5-1.7 6.2-3.7c1.8-2 3.8-4.3 7.7-4.3 3.9 0 5.9 2.3 7.7 4.3 1.7 2 3.2 3.7 6.2 3.7s4.5-1.7 6.2-3.7c1.8-2 3.8-4.3 7.7-4.3 4 0 6 2.3 7.7 4.3 1.7 2 3.2 3.7 6.2 3.7s4.5-1.7 6.2-3.7c1.673-1.858 3.518-3.976 6.9-4.266v2.009c-2.48.276-3.858 1.843-5.4 3.657-1.8 2-3.8 4.3-7.7 4.3-3.9 0-5.9-2.3-7.7-4.3-1.7-2-3.2-3.7-6.2-3.7s-4.5 1.7-6.2 3.7c-1.8 2-3.8 4.3-7.7 4.3-3.9 0-5.9-2.3-7.7-4.3-1.7-2-3.2-3.7-6.2-3.7s-4.5 1.7-6.2 3.7c-1.8 2-3.8 4.3-7.7 4.3-3.9 0-5.9-2.3-7.7-4.3-1.583-1.862-2.992-3.464-5.6-3.676v.019c-2.48.276-3.858 1.843-5.4 3.657-1.8 2-3.8 4.3-7.7 4.3-3.9 0-5.9-2.3-7.7-4.3C59.5 3.7 58 2 55 2s-4.5 1.7-6.2 3.7C47 7.7 45 10 41.1 10c-3.9 0-5.9-2.3-7.7-4.3-1.7-2-3.2-3.7-6.2-3.7S22.7 3.7 21 5.7c-1.8 2-3.8 4.3-7.7 4.3-3.9 0-5.9-2.3-7.7-4.3C4.017 3.838 2.608 2.236 0 2.024V.019C3.51.24 5.395 2.405 7.1 4.3c1.7 2 3.2 3.7 6.2 3.7s4.5-1.7 6.2-3.7c1.8-2 3.8-4.3 7.7-4.3 3.9 0 5.9 2.3 7.7 4.3 1.7 2 3.2 3.7 6.2 3.7s4.5-1.7 6.2-3.7C49.1 2.3 51.1 0 55 0c4 0 6 2.3 7.7 4.3 1.7 2 3.2 3.7 6.2 3.7s4.5-1.7 6.2-3.7C76.773 2.442 78.618.324 82 .034z" fill="url(#a)" fill-rule="nonzero"/></svg>